<?xml version="1.0" encoding="UTF-8" standalone="no"?>
<!-- Created with Inkscape (http://www.inkscape.org/) -->
<svg xmlns:dc="http://purl.org/dc/elements/1.1/" xmlns:cc="http://creativecommons.org/ns#" xmlns:rdf="http://www.w3.org/1999/02/22-rdf-syntax-ns#" xmlns:svg="http://www.w3.org/2000/svg" xmlns="http://www.w3.org/2000/svg" xmlns:sodipodi="http://sodipodi.sourceforge.net/DTD/sodipodi-0.dtd" xmlns:inkscape="http://www.inkscape.org/namespaces/inkscape" width="77.753143" height="109.7429" id="svg3047" version="1.1" inkscape:version="0.48pre1 r9509" sodipodi:docname="SPST-NO relay symbol.svg">
  <defs id="defs3049"/>
  <sodipodi:namedview id="base" pagecolor="#ffffff" bordercolor="#666666" borderopacity="1.0" inkscape:pageopacity="0.0" inkscape:pageshadow="2" inkscape:zoom="2.8" inkscape:cx="-49.379358" inkscape:cy="47.781981" inkscape:document-units="px" inkscape:current-layer="g4737" showgrid="false" fit-margin-top="10" fit-margin-left="10" fit-margin-right="10" fit-margin-bottom="10" inkscape:window-width="1600" inkscape:window-height="1110" inkscape:window-x="0" inkscape:window-y="33" inkscape:window-maximized="1"/>
  <metadata id="metadata3052">
    <rdf:RDF>
      <cc:Work rdf:about="">
        <dc:format>image/svg+xml</dc:format>
        <dc:type rdf:resource="http://purl.org/dc/dcmitype/StillImage"/>
        <dc:title/>
      </cc:Work>
    </rdf:RDF>
  </metadata>
  <g inkscape:label="Layer 1" inkscape:groupmode="layer" id="layer1" transform="translate(-319.46963,-488.93165)">
    <g style="display:inline" id="g4737" transform="translate(-1371.4771,157.03214)">
      <g transform="matrix(0,2,-2,0,2060.4063,4.093777)" id="g4007" style="display:inline">
        <path inkscape:connector-curvature="0" id="path4009" style="fill:none;stroke:#000000;stroke-width:1.77165353;stroke-linecap:square;stroke-linejoin:round;stroke-miterlimit:4;stroke-opacity:1;stroke-dasharray:none" d="m 212.59842,178.84396 -3.54331,0 c -0.021,-8.23279 -7.10766,-8.23279 -7.09714,0 -0.0105,-8.2328 -7.09713,-8.2328 -7.07622,-0.0293 -1.3e-4,-8.26204 -7.08675,-8.26204 -7.06557,0 1.4e-4,-8.20354 -7.08648,-8.20354 -7.097,0.0293 -0.0316,-8.23279 -0.0105,0 -0.0105,0 -0.021,-8.23279 -7.10766,-8.23279 -7.10766,0 l -3.52226,0" sodipodi:nodetypes="ccccccccc"/>
        <path inkscape:connector-curvature="0" style="fill:none;stroke:#000000;stroke-width:2.60000086;stroke-linecap:butt;stroke-linejoin:miter;stroke-miterlimit:4;stroke-opacity:1;stroke-dasharray:none;stroke-dashoffset:0" d="m 173.62576,168.18895 35.42944,0.10932" id="path4011"/>
      </g>
      <g style="stroke-width:13.31956863;stroke-miterlimit:4;stroke-dasharray:none" id="layer1-0" transform="matrix(0,0.26948713,-0.26948713,0,1759.101,343.12612)">
        <g style="stroke-width:13.31956863;stroke-miterlimit:4;stroke-dasharray:none" id="g3070" transform="translate(-9.449579,-154.724)">
          <path id="path1307" style="fill:#ffffff;fill-opacity:1;fill-rule:evenodd;stroke:#000000;stroke-width:23.56007195;stroke-linecap:butt;stroke-linejoin:miter;stroke-miterlimit:4;stroke-opacity:1;stroke-dasharray:none;stroke-dashoffset:0" transform="matrix(0.558077,0,0,0.558077,14.06064,70.25447)" d="m 242.85714,269.50504 a 34.285715,34.285715 0 1 1 -68.57143,0 34.285715,34.285715 0 1 1 68.57143,0 z" inkscape:connector-curvature="0"/>
          <path id="path2184" style="color:#000000;fill:none;stroke:#000000;stroke-width:13.14833546;stroke-linecap:butt;stroke-linejoin:round;stroke-miterlimit:4;stroke-opacity:1;stroke-dasharray:none;stroke-dashoffset:0;marker:none;visibility:visible;display:inline;overflow:visible" d="m 238.21281,220.65917 93.1246,0" inkscape:connector-curvature="0"/>
          <path sodipodi:nodetypes="cc" id="path3059" style="color:#000000;fill:none;stroke:#000000;stroke-width:13.14833546;stroke-linecap:butt;stroke-linejoin:round;stroke-miterlimit:4;stroke-opacity:1;stroke-dasharray:none;stroke-dashoffset:0;marker:none;visibility:visible;display:inline;overflow:visible" d="m 11.472093,220.65917 97.076197,0" inkscape:connector-curvature="0"/>
          <path id="path3061" style="color:#000000;fill:none;stroke:#000000;stroke-width:13.14833546;stroke-linecap:butt;stroke-linejoin:round;stroke-miterlimit:4;stroke-opacity:1;stroke-dasharray:none;stroke-dashoffset:0;marker:none;visibility:visible;display:inline;overflow:visible" d="m 130.36418,162.78665 93.51114,61.20986" inkscape:connector-curvature="0"/>
          <path id="path2182" style="fill:#ffffff;fill-opacity:1;fill-rule:evenodd;stroke:#000000;stroke-width:23.56007195;stroke-linecap:butt;stroke-linejoin:miter;stroke-miterlimit:4;stroke-opacity:1;stroke-dasharray:none;stroke-dashoffset:0" transform="matrix(0.558077,0,0,0.558077,102.3219,70.25447)" d="m 242.85714,269.50504 a 34.285715,34.285715 0 1 1 -68.57143,0 34.285715,34.285715 0 1 1 68.57143,0 z" inkscape:connector-curvature="0"/>
        </g>
      </g>
    </g>
  </g>
</svg>